<?xml version="1.0" encoding="UTF-8" standalone="no"?>
<!DOCTYPE svg PUBLIC "-//W3C//DTD SVG 1.1//EN" "http://www.w3.org/Graphics/SVG/1.1/DTD/svg11.dtd">
<svg width="100%" height="100%" viewBox="0 0 1798 526" version="1.1" xmlns="http://www.w3.org/2000/svg" xmlns:xlink="http://www.w3.org/1999/xlink" xml:space="preserve" xmlns:serif="http://www.serif.com/" style="fill-rule:evenodd;clip-rule:evenodd;stroke-linejoin:round;stroke-miterlimit:2;">
    <g transform="matrix(1,0,0,1,-175.685,-335.97)">
        <g transform="matrix(12.2382,0,0,12.2382,-225.075,-1627.16)">
            <path d="M168.917,181.86L168.917,180.104C168.917,179.974 168.92,179.846 168.927,179.722L168.928,179.669L168.93,179.669C169.006,178.446 169.412,177.501 170.147,176.833C170.985,176.069 172.188,175.687 173.753,175.687C175.337,175.687 176.54,176.06 177.36,176.805C178.012,177.384 178.405,178.186 178.539,179.213C178.539,179.213 178.569,180.638 178.588,180.691C178.753,181.153 179.663,181.212 179.663,181.212L176.353,181.411L176.353,179.825C176.353,178.371 175.487,177.644 173.753,177.644C172.914,177.644 172.271,177.83 171.824,178.203C171.377,178.576 171.153,179.116 171.153,179.825L171.153,181.171C171.2,181.616 172.227,181.66 172.227,181.66L168.917,181.86ZM147.207,183.168L147.207,170.601C147.207,170.601 149.443,172.525 149.443,172.954L149.443,182.48C149.49,182.924 150.516,182.969 150.516,182.969L147.207,183.168ZM153.127,182.811L153.127,180.054C153.127,178.619 153.64,177.529 154.665,176.784C155.709,176.019 157.209,175.637 159.166,175.637C161.123,175.637 162.623,176.019 163.667,176.784C164.705,177.525 165.227,178.606 165.233,180.029L165.233,181.527C165.278,181.973 166.306,182.017 166.306,182.017L162.996,182.217L162.996,179.775C162.996,179.066 162.67,178.526 162.017,178.153C161.365,177.781 160.415,177.594 159.166,177.594C156.631,177.594 155.364,178.321 155.364,179.775L155.364,182.123C155.41,182.567 156.437,182.612 156.437,182.612L153.127,182.811ZM103.785,185.785L103.785,180.104C103.785,178.669 104.298,177.579 105.323,176.833C106.367,176.069 107.867,175.687 109.824,175.687C111.781,175.687 113.282,176.069 114.325,176.833C115.369,177.579 115.891,178.669 115.891,180.104L115.891,184.502C115.938,184.947 116.964,184.991 116.964,184.991L113.655,185.19L113.655,179.825C113.655,179.116 113.328,178.576 112.676,178.203C112.023,177.83 111.073,177.644 109.824,177.644C107.289,177.644 106.022,178.371 106.022,179.825L106.022,185.097C106.069,185.541 107.095,185.586 107.095,185.586L103.785,185.785ZM119.575,184.834L119.575,171.158C119.575,170.729 119.576,170.601 119.576,170.601C119.576,170.601 121.812,172.525 121.812,172.954L121.812,184.145C121.859,184.59 122.885,184.634 122.885,184.634L119.575,184.834ZM125.497,184.477L125.497,171.134C125.497,170.706 125.498,170.577 125.498,170.577C125.498,170.577 127.733,172.501 127.733,172.93L127.733,183.788C127.78,184.233 128.807,184.277 128.807,184.277L125.497,184.477ZM131.417,184.12L131.417,176.657C131.417,176.228 131.418,176.1 131.418,176.1C131.418,176.1 133.654,178.024 133.654,178.453L133.654,183.431C133.701,183.876 134.727,183.92 134.727,183.92L131.417,184.12ZM137.338,183.763L137.338,180.524C137.338,179.089 137.85,177.998 138.875,177.253C139.919,176.489 141.42,176.107 143.377,176.107L145.809,176.107C146.181,176.107 146.665,176.129 146.665,176.129C146.665,176.129 145.2,178.051 144.827,178.051L143.377,178.064C140.842,178.064 139.574,178.791 139.574,180.244L139.574,183.074C139.621,183.519 140.648,183.563 140.648,183.563L137.338,183.763ZM90.73,186.572L87.42,186.772L87.437,176.207C87.437,174.772 87.987,173.682 89.087,172.936C90.186,172.172 91.78,171.79 93.867,171.79C94.691,171.79 95.434,171.852 96.096,171.975C97.08,172.159 97.884,172.479 98.508,172.936C99.571,173.682 100.102,174.772 100.102,176.207L100.102,177.941C100.102,178.369 100.097,180.537 100.097,180.537C100.097,180.537 97.865,178.369 97.865,177.941L97.865,175.927C97.865,174.473 96.532,173.747 93.867,173.747C92.507,173.747 91.463,173.933 90.736,174.306C90.028,174.679 89.674,175.219 89.674,175.927L89.674,184.798L89.679,186.129C89.764,186.546 90.73,186.572 90.73,186.572ZM168.917,184.087C168.917,183.612 167.842,183.562 167.842,183.562L168.917,183.497L168.917,183.493L171.153,183.358L171.153,192.657C171.153,193.086 170.781,193.3 170.035,193.3C169.29,193.3 168.917,193.086 168.917,192.657L168.917,184.312C168.918,184.232 168.917,184.152 168.917,184.087ZM165.233,183.715L165.233,188.833C165.233,190.249 164.711,191.34 163.667,192.104C162.642,192.868 161.151,193.25 159.194,193.25C157.237,193.25 155.737,192.868 154.693,192.104C153.649,191.34 153.127,190.249 153.127,188.833L153.127,185.251C153.128,185.173 153.127,185.098 153.127,185.034C153.127,184.56 152.054,184.509 152.054,184.509L155.364,184.309L155.364,189.112C155.364,189.821 155.69,190.361 156.342,190.734C156.995,191.107 157.945,191.293 159.194,191.293C161.729,191.293 162.996,190.566 162.996,189.112L162.996,184.678C162.997,184.595 162.996,184.498 162.996,184.428C162.996,183.954 161.923,183.914 161.923,183.914L165.233,183.715ZM149.443,184.666L149.443,188.883C149.443,190.3 148.922,191.39 147.878,192.154C146.853,192.918 145.362,193.3 143.405,193.3C141.448,193.3 139.947,192.918 138.903,192.154C137.859,191.39 137.338,190.3 137.338,188.883L137.338,186.23C137.339,186.147 137.338,186.051 137.338,185.981C137.338,185.507 136.265,185.461 136.265,185.461L139.574,185.261L139.574,189.163C139.574,189.871 139.9,190.411 140.553,190.784C141.205,191.157 142.156,191.343 143.405,191.343C145.94,191.343 147.207,190.616 147.207,189.163L147.207,185.393C147.207,184.919 146.133,184.866 146.133,184.866L149.443,184.666ZM131.417,186.328C131.417,185.853 130.344,185.817 130.344,185.817L133.654,185.618L133.654,189.657C133.654,190.16 133.719,190.571 133.85,190.888C133.999,191.204 134.138,191.465 134.269,191.67C134.913,192.678 135.142,192.633 135.142,192.633C135.142,192.633 133.253,193.208 133.067,193.208C132.806,193.208 132.545,193.05 132.284,192.733C132.023,192.397 131.809,191.978 131.641,191.475C131.492,190.971 131.417,190.459 131.417,189.937L131.417,186.545C131.418,186.466 131.417,186.392 131.417,186.328ZM125.497,186.709C125.497,186.234 124.423,186.174 124.423,186.174L127.733,185.975L127.733,189.586C127.733,190.089 127.799,190.499 127.929,190.816C128.078,191.133 128.218,191.394 128.349,191.599C129,192.618 129.221,192.562 129.221,192.562C129.221,192.562 127.333,193.137 127.146,193.137C126.885,193.137 126.624,192.978 126.363,192.662C126.102,192.326 125.888,191.907 125.72,191.403C125.571,190.9 125.497,190.387 125.497,189.865L125.497,186.709ZM119.575,187.073C119.575,186.599 118.504,186.532 118.504,186.532L119.575,186.466L121.812,186.332L121.812,189.61C121.812,190.113 121.877,190.523 122.007,190.84C122.156,191.157 122.296,191.418 122.427,191.623C123.076,192.639 123.3,192.585 123.3,192.585C123.3,192.585 121.411,193.16 121.225,193.16C120.964,193.16 120.703,193.002 120.442,192.685C120.181,192.35 119.966,191.93 119.798,191.427C119.649,190.924 119.575,190.412 119.575,189.89L119.575,187.28C119.576,187.204 119.575,187.136 119.575,187.073ZM115.891,186.688L115.891,188.883C115.891,190.3 115.369,191.39 114.325,192.154C113.3,192.918 111.809,193.3 109.852,193.3C107.895,193.3 106.395,192.918 105.351,192.154C104.307,191.39 103.785,190.3 103.785,188.883L103.785,187.98C103.744,187.529 102.552,187.494 102.552,187.494L103.785,187.419L103.785,187.418L106.022,187.283L106.022,189.163C106.022,189.871 106.348,190.411 107.001,190.784C107.653,191.157 108.603,191.343 109.852,191.343C112.387,191.343 113.655,190.616 113.655,189.163L113.655,187.413C113.655,186.938 112.584,186.892 112.584,186.892L113.655,186.823L115.891,186.688ZM100.117,187.639L100.102,188.9C100.102,190.335 99.571,191.434 98.508,192.199C97.464,192.944 95.917,193.317 93.867,193.317C91.78,193.317 90.186,192.935 89.087,192.171C87.987,191.407 87.437,190.316 87.437,188.9C87.362,188.599 86.977,188.585 86.502,188.46L89.672,188.269L89.674,189.179C89.674,189.887 90.028,190.428 90.736,190.801C91.463,191.174 92.507,191.36 93.867,191.36C96.532,191.36 97.865,190.633 97.865,189.179C97.865,189.179 97.882,188.594 97.882,188.36C97.882,187.885 96.807,187.839 96.807,187.839L100.117,187.639ZM131.313,170.115C131.313,170.115 133.738,172.032 133.738,172.498L133.738,174.931C133.738,175.396 133.724,175.694 133.724,175.694C133.724,175.694 131.306,173.601 131.306,173.135L131.306,170.702C131.306,170.236 131.313,170.115 131.313,170.115Z"/>
        </g>
        <g id="g59" transform="matrix(5.15921,0,0,5.15921,-53.6578,10.7184)">
            <path id="path45" d="M99.678,163.006C99.678,163.006 86.87,127.641 95.665,98.938L95.785,98.544L99.494,98.929L99.438,99.429C99.438,99.429 94.375,144.581 100.621,162.673L99.678,163.006Z"/>
            <path id="path46" d="M100.638,98.848L107.174,128.043L106.205,128.288L99.394,104.273L99.651,98.933L100.638,98.848Z"/>
            <path id="path47" d="M143.963,139.503C143.062,120.125 119.449,81.259 119.449,81.259L119.18,80.816L122.751,78.821L123.019,79.106C143.817,101.27 144.962,139.465 144.962,139.465L143.963,139.503Z"/>
            <path id="path48" d="M120.376,83.807L124.4,91.387L126.513,117.425L125.523,117.554L119.442,84.13L120.376,83.807Z"/>
            <path id="path49" d="M76.555,115.432C76.555,115.432 61.375,111.257 46.463,109.7L46.449,108.707C59.297,107.005 74.244,110.591 77.503,111.303L78.365,111.491L77.76,112.134C77.067,112.869 76.728,113.956 77.13,114.716L77.671,115.739L76.555,115.432Z"/>
            <path id="path50" d="M77.396,123.429C73.834,123.429 69.109,125.021 64.716,126.916C58.059,129.788 52.166,133.378 52.166,133.378L51.569,132.581C51.569,132.581 58.306,126.431 76.834,119.25L78.041,118.782L77.462,119.94C76.974,120.917 77.028,121.898 77.738,122.564L78.66,123.429L77.396,123.429Z"/>
            <path id="path51" d="M73.882,156.383C73.882,156.383 73.902,127.991 85.407,111.049L85.668,110.665L88.965,112.565L88.771,112.981C88.771,112.981 75.453,141.462 74.882,156.402L73.882,156.383Z"/>
            <path id="path52" d="M101.474,126.221C100.415,125.82 99.355,125.414 98.32,124.932L98.019,124.792L98.031,124.46C98.045,124.084 98.164,121.647 98.195,120.992L98.244,119.955L99.024,120.64C101.654,122.949 106.743,127.333 106.952,127.525L106.435,128.244L106.325,128.738C106.325,128.738 103,128.263 98.381,127.327L97.969,127.244L97.98,126.824C97.987,126.553 97.995,126.093 98.004,125.822L98.026,125.171L101.474,126.221ZM78.891,112.033C79.323,112.297 80.415,112.872 82.443,114.037L82.868,114.282L82.632,114.712C82.149,115.592 82.015,115.916 81.582,116.822L81.366,117.273L77.862,115.591L77.785,115.442C77.438,114.772 77.252,114.344 77.288,113.891C77.324,113.446 77.576,112.945 78.245,112.14L78.522,111.807L78.891,112.033ZM92.442,115.604L92.43,115.841C92.333,117.809 92.173,119.644 92.176,121.539L92.177,122.307L86.329,119.733L86.523,119.279C87.759,116.385 88.039,115.814 89.106,113.463L89.389,112.84L92.442,115.604ZM80.39,119.81L80.179,120.33C79.858,121.123 79.578,121.91 79.286,122.717L79.021,123.451L78.465,122.903C77.766,122.214 77.537,121.602 77.519,121.107C77.489,120.288 78.037,119.714 78.45,119.447L78.638,119.325L80.39,119.81ZM92.207,123.531L92.215,123.891C92.226,124.368 92.24,124.959 92.258,125.436L92.281,126.071L91.659,125.945C89.041,125.415 87.172,124.92 84.993,124.483L84.401,124.365L84.628,123.805C84.89,123.158 85.182,122.552 85.449,121.907L85.624,121.485L92.207,123.531Z"/>
            <path id="path53" d="M116.758,113.09C111.542,113.09 107.25,117.382 107.25,122.598C107.25,127.814 111.542,132.106 116.758,132.106C121.974,132.106 126.267,127.814 126.267,122.598C126.267,117.382 121.975,113.09 116.758,113.09ZM118.442,115.216C119.964,115.216 121.217,116.469 121.217,117.992C121.217,119.514 119.964,120.767 118.442,120.767C116.919,120.767 115.667,119.514 115.666,117.992C115.666,116.469 116.919,115.216 118.442,115.216Z" style="fill-rule:nonzero;"/>
            <path id="path54" d="M108.513,75.779C112.378,76.529 115.809,77.7 119.391,79.417L120.191,79.801L119.416,80.234C119.185,80.363 118.964,80.546 118.74,80.714C119.135,81.374 119.775,82.437 120.025,82.863L120.419,83.535L119.64,83.556C119.475,83.56 119.386,83.673 119.267,83.761C119.16,83.84 119.045,83.917 118.911,83.981C118.913,84.063 118.954,84.122 118.993,84.2C119.092,84.4 119.202,84.649 119.237,85.058L119.311,85.907L118.561,85.503C116.846,84.579 116.193,84.076 114.74,83.453C114.622,83.402 114.351,83.214 114.004,82.949C113.312,82.422 112.243,81.566 111.498,81.183C109.262,80.037 107.279,79.613 107.279,79.613L106.765,79.503L108.125,75.704L108.513,75.779ZM129.838,85.445C144.568,95.838 154.005,110.305 154.005,110.305L153.245,110.822C149.229,105.154 142.157,99.483 134.21,94.36L134.107,94.293L134.05,94.184C132.602,91.383 130.99,88.669 129.195,86.083L129.838,85.445Z"/>
            <path id="path55" d="M108.232,80.285C110.486,80.745 112.397,81.758 113.965,83.324L114.054,83.413L126.524,117.407L125.476,117.852L107.1,80.053L108.232,80.285Z"/>
            <path id="path56" d="M144.085,78.337C140.161,79.011 134.307,82.219 129.082,85.539L128.776,85.734L128.556,85.445C128.012,84.731 127.57,83.994 127.07,83.319L126.781,82.93L127.221,82.726C135.085,79.073 141.589,77.918 143.959,77.557L144.085,78.337ZM119.863,87.361C120.092,88.62 120.32,89.878 120.549,91.137L120.592,91.378L120.397,91.524C119.672,92.066 119.149,92.493 118.456,93.026L118.03,93.353L117.844,92.85C117.411,91.674 116.943,90.498 116.512,89.322L116.409,89.041L116.652,88.866C117.571,88.203 118.341,87.691 119.26,87.1L119.757,86.78L119.863,87.361ZM112.811,92.5C113.342,93.592 113.835,94.684 114.366,95.776L114.504,96.06L114.258,96.257C112.444,97.713 111.049,98.91 109.754,100.004L109.674,100.071L109.572,100.09C107.449,100.488 106.792,101.517 106.248,101.97L106.1,102.094L103.696,101.576L104.07,101.081C106.651,97.675 109.295,94.883 112.198,92.374L112.587,92.038L112.811,92.5Z"/>
            <path id="path57" d="M105.933,102.418C106.67,102.344 106.998,101.925 107.367,101.552C107.914,100.999 108.504,100.486 109.747,100.485L109.971,100.485L126.47,115.736L125.771,116.632L104.331,102.579L105.933,102.418Z"/>
            <path id="path58" d="M131.007,64.601C126.559,67.042 121.635,72.483 117.412,77.964L117.268,78.151L117.049,78.062C116.289,77.753 115.521,77.46 114.747,77.187L114.3,77.03L114.623,76.684C122.26,68.499 130.714,64.055 130.714,64.055L131.007,64.601ZM109.091,84.539C109.562,85.514 110.034,86.49 110.506,87.465L110.582,87.623L110.487,87.769C109.819,88.793 109.232,89.715 108.741,90.499L108.647,90.649L108.47,90.644C107.919,90.629 107.407,90.888 106.987,91.193C106.319,91.677 105.877,92.293 105.877,92.293L105.746,92.475L104.752,92.162L104.868,91.855C105.858,89.238 107.119,86.786 108.55,84.509L108.847,84.035L109.091,84.539Z"/>
            <path id="path59" d="M108.394,90.911C108.716,90.952 108.964,91.094 109.19,91.312C109.393,91.509 109.573,91.794 109.855,92.076L109.894,92.115L110.724,93.347L110.374,93.679C109.629,94.385 108.903,95.111 108.195,95.855L107.716,96.358L106.039,93.982L106.018,93.853C105.86,92.912 106.261,91.999 106.865,91.452C107.313,91.048 107.867,90.846 108.394,90.911ZM126.466,117.29L125.549,117.965L110.559,99.737L110.965,99.373C111.596,98.807 112.249,98.277 112.911,97.75L113.4,97.361L126.466,117.29Z"/>
        </g>
    </g>
</svg>
